# xmcd
#
# Track frame offsets:
#	150
#	21224
#	40140
#	58452
#	79468
#	93458
#	115865
#	137316
#	152503
#	170920
#	189145
#	210553
#	229734
#	247300
#	264450
#	279918
#	302265
#	324031
#
# Disc length: 4566 seconds
#
# Revision: 0
# Processed by: cddbd v1.5.2PL0 Copyright (c) Steve Scherf et al.
# Submitted via: EasyCDDAExtractor 8.2.2.1
#
DISCID=ee11d412
DTITLE=Various Artist - Love Stories
DYEAR=2011
DGENRE=Pop
TTITLE0=Celine Dion\n - My Heart Will Go On 
TTITLE1=Savage Garden\n - I Knew I Love You 
TTITLE2=Jason Mraz\n - I'm Yours 
TTITLE3=M2M\n - Pretty Boy 
TTITLE4=Norah Jones\n - Don't Know Why 
TTITLE5=Leann Rimes\n - How Do I Live 
TTITLE6=Backstreet Boys\n - I'll Never Break Your Heart 
TTITLE7=Robbie Williams\n - Better Man 
TTITLE8=Natalie Imbruglia\n - Torn
TTITLE9=George Benson\n - Nothing's Gonna Change My Love For You 
TTITLE10=R Kelly\n -  I Believe I Can Fly 
TTITLE11=Michael Bolton\n - How Am I Supposed To Live Without You 
TTITLE12=Air Supply\n - All Out Of Love 
TTITLE13=Cyndi Lauper\n - Time After Time 
TTITLE14=Phil Collins\n - Against All Odds 
TTITLE15=Foreigner\n - I Want To Know What Love Is 
TTITLE16=Josh Groban\n - You Raise Me Up
TTITLE17=Sarah Brightman\n - Time To Say Goodbye 
EXTD=
EXTT0=
EXTT1=
EXTT2=
EXTT3=
EXTT4=
EXTT5=
EXTT6=
EXTT7=
EXTT8=
EXTT9=
EXTT10=
EXTT11=
EXTT12=
EXTT13=
EXTT14=
EXTT15=
EXTT16=
EXTT17=
PLAYORDER=
